<svg xmlns="http://www.w3.org/2000/svg" width="1400" height="860" viewBox="0 0 1400 860" role="img" aria-label="Pomodoroz Study Rotation Grid preview">
  <defs>
    <linearGradient id="bg" x1="0" y1="0" x2="1" y2="1">
      <stop offset="0%" stop-color="#f4f7fb" />
      <stop offset="100%" stop-color="#e8eef8" />
    </linearGradient>
    <filter id="shadow" x="-10%" y="-10%" width="120%" height="120%">
      <feDropShadow dx="0" dy="4" stdDeviation="6" flood-color="#1f2a44" flood-opacity="0.12" />
    </filter>
  </defs>

  <rect x="0" y="0" width="1400" height="860" fill="url(#bg)" />
  <rect x="40" y="30" width="1320" height="800" rx="18" fill="#ffffff" stroke="#d6dfef" />

  <text x="82" y="84" font-family="Segoe UI, Arial, sans-serif" font-size="30" font-weight="700" fill="#22324a">Study Rotation Grid</text>
  <text x="82" y="116" font-family="Segoe UI, Arial, sans-serif" font-size="17" fill="#5c6f8f">Sample data from pomodoroz-tasks-2026-04-20.json</text>

  <g transform="translate(72, 145)">
    <rect x="0" y="0" width="244" height="650" rx="12" fill="#f7f9fe" stroke="#d7dfed" />
    <text x="16" y="34" font-family="Segoe UI, Arial, sans-serif" font-size="18" font-weight="700" fill="#273754">SUBJECT 1</text>
    <rect x="16" y="52" width="108" height="24" rx="12" fill="#e8f1ff" />
    <text x="30" y="69" font-family="Segoe UI, Arial, sans-serif" font-size="13" font-weight="700" fill="#2d5ea7">PRIORITY</text>
    <rect x="16" y="92" width="212" height="60" rx="10" fill="#ffffff" stroke="#dbe4f3" />
    <text x="28" y="127" font-family="Segoe UI, Arial, sans-serif" font-size="15" fill="#334867">Task 1</text>
    <rect x="16" y="164" width="212" height="60" rx="10" fill="#ffffff" stroke="#dbe4f3" />
    <text x="28" y="199" font-family="Segoe UI, Arial, sans-serif" font-size="15" fill="#334867">Task 2</text>
    <rect x="16" y="236" width="212" height="60" rx="10" fill="#ffffff" stroke="#dbe4f3" />
    <text x="28" y="271" font-family="Segoe UI, Arial, sans-serif" font-size="15" fill="#334867">Task 3</text>
    <rect x="16" y="308" width="212" height="60" rx="10" fill="#ffffff" stroke="#dbe4f3" />
    <text x="28" y="343" font-family="Segoe UI, Arial, sans-serif" font-size="15" fill="#334867">Task 4</text>
  </g>

  <g transform="translate(336, 145)">
    <rect x="0" y="0" width="244" height="650" rx="12" fill="#f7f9fe" stroke="#d7dfed" />
    <text x="16" y="34" font-family="Segoe UI, Arial, sans-serif" font-size="18" font-weight="700" fill="#273754">SUBJECT 2</text>
    <rect x="16" y="92" width="212" height="60" rx="10" fill="#ffffff" stroke="#dbe4f3" />
    <text x="28" y="127" font-family="Segoe UI, Arial, sans-serif" font-size="15" fill="#334867">Task 5</text>
    <rect x="16" y="164" width="212" height="60" rx="10" fill="#ffffff" stroke="#dbe4f3" />
    <text x="28" y="199" font-family="Segoe UI, Arial, sans-serif" font-size="15" fill="#334867">Task 6</text>
    <rect x="16" y="236" width="212" height="60" rx="10" fill="#ffffff" stroke="#dbe4f3" />
    <text x="28" y="271" font-family="Segoe UI, Arial, sans-serif" font-size="15" fill="#334867">Task 7</text>
    <rect x="16" y="308" width="212" height="60" rx="10" fill="#ffffff" stroke="#dbe4f3" />
    <text x="28" y="343" font-family="Segoe UI, Arial, sans-serif" font-size="15" fill="#334867">Task 8</text>
    <rect x="16" y="380" width="212" height="60" rx="10" fill="#ffffff" stroke="#dbe4f3" />
    <text x="28" y="415" font-family="Segoe UI, Arial, sans-serif" font-size="15" fill="#334867">Task 9</text>
    <rect x="16" y="452" width="212" height="60" rx="10" fill="#ffffff" stroke="#dbe4f3" />
    <text x="28" y="487" font-family="Segoe UI, Arial, sans-serif" font-size="15" fill="#334867">Task 10</text>
  </g>

  <g transform="translate(600, 145)">
    <rect x="0" y="0" width="244" height="650" rx="12" fill="#f7f9fe" stroke="#d7dfed" />
    <text x="16" y="34" font-family="Segoe UI, Arial, sans-serif" font-size="18" font-weight="700" fill="#273754">SUBJECT 3</text>
    <rect x="16" y="92" width="212" height="60" rx="10" fill="#ffffff" stroke="#dbe4f3" />
    <text x="28" y="127" font-family="Segoe UI, Arial, sans-serif" font-size="15" fill="#334867">Task 11</text>
    <rect x="16" y="164" width="212" height="60" rx="10" fill="#ffffff" stroke="#dbe4f3" />
    <text x="28" y="199" font-family="Segoe UI, Arial, sans-serif" font-size="15" fill="#334867">Task 12</text>
    <rect x="16" y="236" width="212" height="60" rx="10" fill="#ffffff" stroke="#dbe4f3" />
    <text x="28" y="271" font-family="Segoe UI, Arial, sans-serif" font-size="15" fill="#334867">Task 13</text>
    <rect x="16" y="308" width="212" height="60" rx="10" fill="#ffffff" stroke="#dbe4f3" />
    <text x="28" y="343" font-family="Segoe UI, Arial, sans-serif" font-size="15" fill="#334867">Task 14</text>
  </g>

  <g transform="translate(864, 145)">
    <rect x="0" y="0" width="244" height="650" rx="12" fill="#f7f9fe" stroke="#d7dfed" />
    <text x="16" y="34" font-family="Segoe UI, Arial, sans-serif" font-size="18" font-weight="700" fill="#273754">SUBJECT 4</text>
    <rect x="16" y="92" width="212" height="60" rx="10" fill="#ffffff" stroke="#dbe4f3" />
    <text x="28" y="127" font-family="Segoe UI, Arial, sans-serif" font-size="15" fill="#334867">Task 15</text>
  </g>

  <g transform="translate(1128, 145)">
    <rect x="0" y="0" width="244" height="650" rx="12" fill="#f7f9fe" stroke="#d7dfed" />
    <text x="16" y="34" font-family="Segoe UI, Arial, sans-serif" font-size="18" font-weight="700" fill="#273754">SUBJECT 5</text>
    <rect x="16" y="92" width="212" height="60" rx="10" fill="#ffffff" stroke="#dbe4f3" />
    <text x="28" y="127" font-family="Segoe UI, Arial, sans-serif" font-size="15" fill="#334867">Task 16</text>
  </g>

  <rect x="1120" y="54" width="226" height="38" rx="10" fill="#2f69d9" filter="url(#shadow)" />
  <text x="1150" y="79" font-family="Segoe UI, Arial, sans-serif" font-size="15" font-weight="700" fill="#ffffff">Draw Next Task</text>
</svg>
